<svg id="Layer_1" enable-background="new 0 0 512.086 512.086" height="512" viewBox="0 0 512.086 512.086" width="512" xmlns="http://www.w3.org/2000/svg" xmlns:xlink="http://www.w3.org/1999/xlink"><linearGradient id="SVGID_1_" gradientUnits="userSpaceOnUse" x1="256.043" x2="256.043" y1=".061" y2="512.026"><stop offset="0" stop-color="#2af598"/><stop offset="1" stop-color="#009efd"/></linearGradient><path d="m509.614 261.085c-61.189.799-115.572-8.182-155.869-24.944 42.937-4.941 101.228-17.303 155.994-47.48l-19.304-35.033c-51.607 28.436-108 39.276-147.573 43.313l109.437-109.759-28.325-28.243-108.47 108.787c4.161-39.49 15.083-95.079 43.148-146.013l-35.032-19.305c-30.258 54.912-42.601 113.357-47.516 156.325-23.868-57.397-25.368-130.226-25.04-156.264.014-1.068.023-1.878.023-2.409h-40c0 .42-.009 1.06-.02 1.905-.43 34.051 1.999 66.821 7.216 97.401 8.57 50.228 24.027 90.359 46.036 119.695l-143.579 144h-60.339l-60.401 128.197 20.767 20.768 129.319-59.118v-62.629l142.374-142.791c29.37 22.239 69.681 37.828 120.218 46.429 28.168 4.794 58.229 7.217 89.47 7.217 2.654 0 5.319-.017 7.99-.052.866-.011 1.521-.021 1.948-.021v-40c-.542 0-1.373.009-2.472.024zm-399.528 166.128-45.492 20.796 21.178-44.948h24.314z" fill="url(#SVGID_1_)"/></svg>