<svg height="512pt" viewBox="-117 0 512 512.00041" width="512pt" xmlns="http://www.w3.org/2000/svg"><path d="m174.660156 421.214844c-12.992187-12.996094-98.078125-66.851563-153.84375-101.609375-12.183594-7.59375-26.265625 6.488281-18.671875 18.667969 34.761719 55.769531 88.613281 140.851562 101.609375 153.847656 19.582032 19.578125 51.328125 19.578125 70.90625 0 19.582032-19.578125 19.582032-51.328125 0-70.90625zm0 0" fill="#0cbf4e"/><path d="m123.292969 207.722656h31.375v233.929688h-31.375zm0 0" fill="#5dc75d"/><path d="m138.980469 207.722656h15.6875v233.929688h-15.6875zm0 0" fill="#0cbf4e"/><path d="m275.8125 343.46875c-34.761719 55.765625-88.617188 140.847656-101.605469 153.847656-9.738281 9.738282-22.476562 14.632813-35.226562 14.683594-7.832031.03125-15.667969-1.757812-22.820313-5.367188-4.632812-2.332031-8.992187-5.445312-12.863281-9.316406s-6.988281-8.230468-9.320313-12.863281c-9.496093-18.804687-6.390624-42.339844 9.320313-58.046875 4.550781-4.539062 17.875-14.058594 35.683594-26.023438 33.175781-22.253906 81.871093-52.960937 118.164062-75.585937 12.183594-7.59375 26.261719 6.484375 18.667969 18.671875zm0 0" fill="#aed06d"/><path d="m275.8125 343.46875c-34.761719 55.765625-88.617188 140.847656-101.605469 153.847656-9.738281 9.738282-22.476562 14.632813-35.226562 14.683594v-111.617188c33.175781-22.253906 81.871093-52.960937 118.164062-75.585937 12.183594-7.59375 26.261719 6.484375 18.667969 18.671875zm0 0" fill="#5dc75d"/><path d="m195.972656 426.835938-56.992187 56.976562-22.820313 22.820312c-4.632812-2.332031-8.992187-5.445312-12.863281-9.316406s-6.988281-8.230468-9.320313-12.863281l45.003907-45.015625 34.796875-34.796875c6.128906-6.117187 16.066406-6.117187 22.195312 0 6.117188 6.128906 6.117188 16.066406 0 22.195313zm0 0" fill="#5dc75d"/><path d="m195.972656 426.835938-56.992187 56.976562v-44.375l34.796875-34.796875c6.128906-6.117187 16.066406-6.117187 22.195312 0 6.117188 6.128906 6.117188 16.066406 0 22.195313zm0 0" fill="#0cbf4e"/><path d="m203.480469 166.273438c0 35.625-28.875 64.5-64.5 64.5-35.621094 0-64.5-28.875-64.5-64.5 0-35.621094 32.96875-166.273438 64.5-166.273438 31.535156 0 64.5 130.652344 64.5 166.273438zm0 0" fill="#ffc9d0"/><path d="m203.480469 166.273438c0 35.625-28.875 64.5-64.5 64.5v-230.773438c31.535156 0 64.5 130.652344 64.5 166.273438zm0 0" fill="#ffa2c1"/><path d="m218.789062 246.628906c-20.707031 20.089844-48.800781 32.589844-79.820312 33.058594-27.207031 0-57.144531-11.058594-79.8125-33.058594-20.503906-19.050781-35.671875-50-35.671875-84.234375 0-49.417969 11.640625-90.300781 31.625-130.671875 2.847656-5.753906 10.113281-7.613281 15.386719-3.976562 26.09375 18.042968 48.914062 38.5 68.484375 60.828125 39.453125 44.972656 66.796875 99.039062 79.808593 158.054687zm0 0" fill="#ff8596"/><path d="m254.457031 162.394531c0 33.070313-13.671875 62.929688-35.667969 84.234375-20.707031 20.089844-48.800781 32.589844-79.820312 33.058594-27.207031 0-57.144531-11.058594-79.8125-33.058594 13.503906-61.277344 42.933594-116.859375 79.824219-158.054687 19.546875-22.339844 42.367187-42.796875 68.460937-60.828125 5.273438-3.636719 12.542969-1.777344 15.386719 3.976562 19.988281 40.371094 31.628906 81.253906 31.628906 130.671875zm0 0" fill="#f06570"/><path d="m254.457031 162.394531c0 33.070313-13.671875 62.929688-35.667969 84.234375-20.707031 20.089844-48.789062 32.589844-79.808593 33.058594v-191.113281c19.546875-22.339844 42.367187-42.796875 68.460937-60.828125 5.273438-3.636719 12.542969-1.777344 15.386719 3.976562 19.988281 40.371094 31.628906 81.253906 31.628906 130.671875zm0 0" fill="#ed484b"/></svg>