<?xml version="1.0"?>
<svg xmlns="http://www.w3.org/2000/svg" xmlns:xlink="http://www.w3.org/1999/xlink" version="1.1" id="Layer_1" x="0px" y="0px" viewBox="0 0 512 512" style="enable-background:new 0 0 512 512;" xml:space="preserve" width="512px" height="512px" class=""><g><path style="fill:#5C5F66" d="M317.715,12.088c-1.391-7.024-7.553-12.085-14.714-12.085H111.003  c-7.155,0-13.313,5.053-14.711,12.07L0.294,494.068c-1.847,9.274,5.258,17.93,14.711,17.93h383.996c8.284,0,15-6.716,15-15  L317.715,12.088z" data-original="#5C5F66" class=""/><path style="fill:#5C5F66" d="M303.002,0.003h-95.999v511.995h191.998c8.284,0,15-6.716,15-15l-96.285-484.91  C316.324,5.064,310.162,0.003,303.002,0.003z" data-original="#53565C" class="active-path" data-old_color="#53565C"/><g>
	<path style="fill:#E6EEFF;" d="M207.002,94.002c-8.284,0-15-6.716-15-15V15.003c0-8.284,6.716-15,15-15c8.284,0,15,6.716,15,15   v63.999C222.002,87.286,215.287,94.002,207.002,94.002z" data-original="#E6EEFF" class=""/>
	<path style="fill:#E6EEFF;" d="M207.002,288c-8.284,0-15-6.716-15-15v-95.999c0-8.284,6.716-15,15-15c8.284,0,15,6.716,15,15V273   C222.002,281.284,215.287,288,207.002,288z" data-original="#E6EEFF" class=""/>
	<path style="fill:#E6EEFF;" d="M207.002,511.998c-8.284,0-15-6.716-15-15V368.999c0-8.284,6.716-15,15-15c8.284,0,15,6.716,15,15   v127.999C222.002,505.282,215.287,511.998,207.002,511.998z" data-original="#E6EEFF" class=""/>
</g><path style="fill:#C12020" d="M401.001,194.001c-61.209,0-110.999,49.79-110.999,110.999c0,33.05,14.4,63.839,39.63,85.009  l58.009,113.799c2.56,5.03,7.72,8.19,13.36,8.19s10.8-3.16,13.36-8.19l58.009-113.799c25.23-21.17,39.63-51.96,39.63-85.009  C512,243.79,462.21,194.001,401.001,194.001z M401.001,351.999c-25.92,0-47-21.08-47-47s21.08-47,47-47s47,21.08,47,47  C448,330.92,426.92,351.999,401.001,351.999z" data-original="#F23051" class="" data-old_color="#F23051"/><path style="fill:#C12020" d="M512,305c0,33.05-14.4,63.839-39.63,85.009l-58.009,113.799c-2.56,5.03-7.72,8.19-13.36,8.19V351.999  c25.92,0,47-21.08,47-47s-21.08-47-47-47v-63.999C462.21,194.001,512,243.79,512,305z" data-original="#D92C48" class="" data-old_color="#D92C48"/><g>
	<path style="fill:#D9E1F1" d="M222.002,496.998V368.999c0-8.284-6.716-15-15-15v157.998   C215.287,511.998,222.002,505.282,222.002,496.998z" data-original="#D9E1F1" class="" data-old_color="#D9E1F1"/>
	<path style="fill:#D9E1F1" d="M222.002,273v-95.999c0-8.284-6.716-15-15-15V288C215.287,288,222.002,281.284,222.002,273z" data-original="#D9E1F1" class="" data-old_color="#D9E1F1"/>
	<path style="fill:#D9E1F1" d="M222.002,79.002V15.003c0-8.284-6.716-15-15-15v93.999   C215.287,94.002,222.002,87.286,222.002,79.002z" data-original="#D9E1F1" class="" data-old_color="#D9E1F1"/>
</g></g> </svg>
